<?xml version="1.0" encoding="UTF-8" standalone="no"?>
<svg
   xmlns:dc="http://purl.org/dc/elements/1.1/"
   xmlns:cc="http://creativecommons.org/ns#"
   xmlns:rdf="http://www.w3.org/1999/02/22-rdf-syntax-ns#"
   xmlns:svg="http://www.w3.org/2000/svg"
   xmlns="http://www.w3.org/2000/svg"
   xmlns:xlink="http://www.w3.org/1999/xlink"
   xmlns:sodipodi="http://sodipodi.sourceforge.net/DTD/sodipodi-0.dtd"
   xmlns:inkscape="http://www.inkscape.org/namespaces/inkscape"
   width="1000"
   height="1000.41"
   viewBox="0 0 1000 1000.41"
   version="1.1"
   id="svg2"
   inkscape:version="0.48.5 r10040"
   sodipodi:docname="vrt.svg">
  <metadata
     id="metadata24">
    <rdf:RDF>
      <cc:Work
         rdf:about="">
        <dc:format>image/svg+xml</dc:format>
        <dc:type
           rdf:resource="http://purl.org/dc/dcmitype/StillImage" />
      </cc:Work>
    </rdf:RDF>
  </metadata>
  <sodipodi:namedview
     pagecolor="#ffffff"
     bordercolor="#666666"
     borderopacity="1"
     objecttolerance="10"
     gridtolerance="10"
     guidetolerance="10"
     inkscape:pageopacity="0"
     inkscape:pageshadow="2"
     inkscape:window-width="1019"
     inkscape:window-height="1035"
     id="namedview22"
     showgrid="false"
     fit-margin-left="0.5"
     fit-margin-bottom="0.5"
     fit-margin-top="0.5"
     fit-margin-right="0.5"
     inkscape:zoom="0.1153425"
     inkscape:cx="85.569476"
     inkscape:cy="1405.3595"
     inkscape:window-x="894"
     inkscape:window-y="-18"
     inkscape:window-maximized="0"
     inkscape:current-layer="svg2">
    <inkscape:grid
       type="xygrid"
       id="grid3012"
       empspacing="5"
       visible="true"
       enabled="true"
       snapvisiblegridlinesonly="true"
       originx="-1015.6105px"
       originy="1377.35px" />
  </sodipodi:namedview>
  <!-- Generator: Sketch 42 (36781) - http://www.bohemiancoding.com/sketch -->
  <title
     id="title4">VRT-logo-screen</title>
  <desc
     id="desc6">Created with Sketch.</desc>
  <defs
     id="defs8">
    <polygon
       id="path-1"
       points="73.9827,74 73.9827,0.0172 1.3552527e-020,0.0172 0,0.0172 0,74 " />
    <mask
       fill="white"
       id="mask-2">
      <use
         height="74"
         width="74"
         y="0"
         x="0"
         id="use15"
         xlink:href="#path-1" />
    </mask>
  </defs>
  <path
     style="fill:#5dfc71;fill-opacity:1;stroke:none"
     d="m 0.5,500.44703 c 0,283.02106 231.6287,499.46296 498.8739,499.46296 262.2217,0 500.1261,-217.3777 500.1261,-500.05133 L 999.5,0.5 499.3739,0.5 C 223.9024,0.5 0.5,224.71226 0.5,500.44703 z"
     id="path3014"
     inkscape:connector-curvature="0"
     sodipodi:nodetypes="cccccc" />
  <path
     d="m 750.7611,632.33149 c 53.7703,0 94.5439,-43.5803 94.5439,-97.33687 0,-0.43157 0,-0.87824 0,-1.317 -0.079,-3.28565 -2.7663,-5.9067 -6.052,-5.9067 l -47.7319,0 c -4.6293,0 -8.2465,2.85985 -8.873,8.42058 l 0,0.23016 c -1.4234,19.98003 -13.6224,32.27253 -30.703,32.27253 -18.1719,0 -30.8354,-13.9281 -30.8354,-36.2379 l 0,-2.58076 c 0,-3.31156 -0.079,-103.07094 -0.079,-103.07094 l 85.1516,0 c 3.3252,0 6.0535,-2.70088 6.0535,-6.03905 l 0,-45.28351 c 0,-3.32521 -2.7283,-6.03976 -6.0535,-6.03976 l -85.1516,0 0,-64.69176 c 0,-3.33817 -2.7138,-6.03905 -6.0527,-6.03905 l -55.3807,0 c -3.3382,0 -6.0398,2.70088 -6.0793,6.13183 l 0,223.09019 c 0,62.48431 40.0292,104.38861 97.2304,104.38861"
     id="Fill-4"
     inkscape:connector-curvature="0"
     style="fill:#16284a;fill-opacity:1;stroke:none" />
  <path
     d="m 518.4261,604.62779 0,-85.11201 c 1.8492,-52.70645 38.5395,-95.0625 91.2446,-92.72198 0.8782,0 1.7428,0 2.6339,0.0791 3.7784,0.12947 6.9447,-2.85984 6.9447,-6.65115 l 0,-45.78844 c 0,-3.5259 -2.7398,-6.43897 -6.2657,-6.66482 -32.858,-2.23551 -68.683,2.51387 -97.0851,37.43476 l 0,-28.96096 c 0,-3.71075 -3.0188,-6.71805 -6.7173,-6.71805 l -51.4434,0 c -3.6978,0 -6.7036,3.0073 -6.7036,6.71805 l 0,245.518 c 0,3.6992 3.0058,6.7187 6.7036,6.7187 l 54.0371,0 c 3.7115,0 6.7181,-3.0195 6.7181,-6.7187 l 0,-17.1871 -0.079,0.1078 z"
     id="Fill-6"
     inkscape:connector-curvature="0"
     style="fill:#16284a;fill-opacity:1;stroke:none" />
  <path
     d="m 405.4169,369.46888 -56.3906,0 c -2.967,0 -5.6017,1.95499 -6.439,4.81628 l -53.0783,169.21203 -1.0379,0 -54.0767,-169.25231 c -0.8645,-2.83395 -3.4726,-4.776 -6.4382,-4.776 l -56.4179,0 c -4.5358,0 -7.7682,4.41636 -6.3987,8.73993 L 249.6,623.74119 c 0.8911,2.7936 3.4719,4.6825 6.3986,4.6825 l 64.9579,0 c 2.9404,0 5.5212,-1.8889 6.398,-4.6825 l 84.4611,-245.53238 c 1.3702,-4.32357 -1.8622,-8.73993 -6.3987,-8.73993"
     id="Fill-8"
     inkscape:connector-curvature="0"
     style="fill:#16284a;fill-opacity:1;stroke:none" />
</svg>
